<svg width="144" height="40" viewBox="0 0 144 40" fill="none" xmlns="http://www.w3.org/2000/svg">
<path fill-rule="evenodd" clip-rule="evenodd" d="M0.0415146 3.79152C0.30419 0.996547 2.15397 0.000698886 3.7973 0.000698886L3.79694 0C4.84659 0 5.87228 0.366428 6.73731 0.724511C10.2717 2.1881 13.7808 6.03477 15.2454 9.93735C15.3658 9.91028 15.4866 9.88461 15.6077 9.8603C15.6864 9.23402 16.0355 8.6514 16.5952 8.29399C16.9457 8.07056 17.3506 7.95222 17.7659 7.95222C18.2118 7.95222 18.6476 8.0917 19.0102 8.34364C19.259 8.24715 19.5255 8.19615 19.7975 8.19615C19.9592 8.19615 20.1206 8.21453 20.2777 8.24994C21.0019 8.41374 21.7236 8.75306 22.4343 9.26278C23.9804 5.6996 27.4045 2.07463 30.6641 0.72485C31.8536 0.232475 32.7509 0.0128341 33.5729 0.0128341C34.6728 0.0128341 37.252 0.462175 37.4491 4.62323C37.6503 8.87174 34.1558 14.2872 31.9035 16.7247C33.4535 19.0676 34.3494 21.6422 34.4438 24.059C34.4525 24.28 34.4397 24.5725 34.4136 25.0267C35.2606 25.6555 35.6992 26.5326 35.6628 27.5524C35.6333 28.3741 35.2141 29.0889 34.5507 29.5081C34.3397 30.2447 33.9445 30.8356 33.7526 31.1226C30.6377 35.7763 21.276 36.1379 18.4811 36.1379C15.2388 36.1379 12.0799 35.7323 9.58573 34.9956C6.36535 34.0445 4.24006 32.5803 3.26884 30.6437C3.06621 30.2391 2.92323 29.862 2.83754 29.5049C2.63629 29.3703 2.45724 29.2041 2.30631 29.0108C2.24523 28.9328 2.18832 28.8488 2.13766 28.761C1.74349 28.0799 1.65467 27.303 1.88678 26.5729C2.07938 25.9684 2.47633 25.4455 3.06966 25.0128C3.03393 24.3258 3.01796 23.8633 3.04746 23.5395C3.27579 21.0416 4.08391 18.6699 5.39587 16.6283C4.78343 15.9027 3.73796 14.5713 2.7369 12.9221C0.694888 9.55843 -0.211778 6.48655 0.0415146 3.79152Z" fill="#20185B"></path>
<path d="M33.4875 27.4747C33.5191 26.5954 32.2311 26.4181 32.1877 26.3373C32.1356 26.2408 32.2838 24.525 32.2689 24.1436C32.053 18.6272 26.6973 12.8 22.8038 12.5664C22.6709 12.5585 21.4228 10.7403 19.7978 10.3728C19.9866 10.9238 19.9176 11.4936 19.6355 12.0789L17.7669 10.1292C17.7669 10.1292 18.9946 13.2739 18.0921 14.435L17.6857 11.7541C11.0364 12.3728 5.83651 16.9402 5.21471 23.7377C5.17412 24.1808 5.33512 26.1364 5.29591 26.2561C5.26086 26.363 3.54224 26.8425 4.02143 27.6711C4.05266 27.711 4.10505 27.727 4.17237 27.727C4.4274 27.727 4.89653 27.5004 5.24247 27.5004C5.3601 27.5004 5.4635 27.5264 5.53949 27.5968C4.88751 28.4279 4.69215 28.6267 5.21437 29.6683C6.65436 32.54 12.5417 33.9616 18.4807 33.9616C24.2865 33.9616 30.1422 32.6032 31.9437 29.9119C32.2342 29.4782 32.7057 28.7245 32.4313 28.2058C32.366 28.0823 31.6544 27.7183 31.9031 27.3526C32.1176 27.4282 32.764 27.7235 33.1617 27.7235C33.3487 27.7235 33.4809 27.6586 33.4875 27.4747Z" fill="#FFC0C0"></path>
<path d="M27.1096 27.5969C30.3258 27.3221 30.9431 30.6628 27.9219 30.8467C24.9288 31.0289 24.1619 27.8488 27.1096 27.5969Z" fill="#F6A7A8"></path>
<path d="M9.72345 27.5968C12.6381 27.4341 13.0802 30.3849 10.4546 30.7655C6.77997 31.2978 6.63597 27.7693 9.72345 27.5968Z" fill="#F6A7A8"></path>
<path d="M20.6914 13.054C20.8885 13.1234 20.3024 14.1331 20.1633 14.232L21.4225 13.7851C21.3736 14.4894 18.691 15.2837 18.5383 14.9631C19.412 14.538 20.0803 13.7972 20.6914 13.054Z" fill="#20185B"></path>
<path d="M26.0536 21.747C29.3757 21.2029 30.2948 27.0173 26.6223 27.2717C22.9706 27.5246 23.5244 22.1613 26.0536 21.747Z" fill="#20185B"></path>
<path d="M26.4596 22.8032C27.7344 22.5218 27.8444 24.5426 26.9471 24.7529C25.6438 25.0586 25.5543 23.0031 26.4596 22.8032Z" fill="white"></path>
<path d="M10.5357 21.747C14.1881 21.1814 14.821 28.0098 10.5357 27.1905C7.58773 26.627 8.26401 22.0989 10.5357 21.747Z" fill="#20185B"></path>
<path d="M10.4546 22.8033C11.9442 22.4379 11.8731 25.167 10.4546 24.753C9.7804 24.5563 9.72662 22.9817 10.4546 22.8033Z" fill="white"></path>
<path d="M18.4165 26.1343C19.2268 26.0267 20.5418 26.4046 19.6758 27.3935C19.3333 27.7849 18.8059 27.5153 18.9447 28.2058C19.0755 28.8574 20.327 28.9057 20.732 28.3682C20.843 28.2207 20.7313 27.4462 21.2195 27.8807C21.4166 28.5316 20.6185 28.8623 20.4884 29.0993C20.3309 29.3859 20.3461 30.0837 20.0821 30.4803C19.5383 31.2967 18.2181 31.3727 17.5636 30.6427C17.1497 30.1812 17.243 29.5087 17.0761 29.1801C16.9627 28.9567 15.6483 28.0215 16.548 27.7582C16.7926 29.0358 18.4873 29.1215 18.6199 27.7988C17.9651 27.5666 17.5241 27.2721 17.6448 26.499C17.7417 26.1988 18.2951 26.1496 18.4165 26.1332V26.1343Z" fill="#20185B"></path>
<path d="M19.9197 30.1153C19.1778 29.8672 18.3173 29.693 17.6448 30.1965C17.4752 29.8665 17.4287 29.6271 17.4012 29.2621C17.7906 29.4411 18.6573 28.7339 18.7822 28.7339C18.8922 28.7339 18.9603 28.9945 19.3916 29.1403C19.8565 29.2971 20.4526 28.8762 19.9197 30.1153Z" fill="#CC3A4D"></path>
<path d="M19.9196 30.1152C19.4935 31.1059 18.1368 31.1527 17.6448 30.1964C18.3172 29.6926 19.1778 29.8671 19.9196 30.1152Z" fill="#EA767E"></path>
<path d="M18.0917 14.435C19.7805 12.8756 17.7666 10.1292 17.7666 10.1292C17.7666 10.1292 18.9942 13.2739 18.0917 14.435Z" fill="#FFDEDE"></path>
<path d="M19.8999 12.3048C20.5338 11.2993 19.7975 10.3728 19.7975 10.3728C19.9863 10.9238 19.9172 11.4936 19.6351 12.0789C19.6351 12.0789 19.7888 12.2198 19.8999 12.3048Z" fill="#FFDEDE"></path>
<path d="M17.8016 12.5217L17.6854 11.7542C14.0636 12.0911 10.8744 13.6015 8.61795 16.0037L8.60754 16.0384C8.60754 16.0384 12.6458 12.555 17.8016 12.5217Z" fill="#FFDEDE"></path>
<path d="M22.8038 12.5664C22.6709 12.5584 27.1432 14.6657 28.7487 16.1848C26.9253 14.1119 24.6931 12.6795 22.8038 12.5664Z" fill="#FFDEDE"></path>
<path d="M18.761 33.4602C6.77129 33.5754 4.91699 28.7343 4.91699 28.7343V28.787C4.92775 29.0157 5.02213 29.2849 5.21436 29.6683C6.65435 32.54 12.5417 33.9616 18.4807 33.9616C24.2865 33.9616 30.1422 32.6032 31.9437 29.9119C32.0975 29.6822 32.2994 29.3626 32.417 29.0358C29.3965 32.676 23.2549 33.4217 18.761 33.4602Z" fill="#F6A7A8"></path>
<path d="M7.97364 14.07C8.12458 14.2258 8.27275 14.3802 8.40079 14.5163C9.04861 13.9118 9.75819 13.3674 10.5205 12.8861L10.5129 12.8001C10.2783 10.224 9.14958 7.74586 7.24046 5.60599C7.04025 5.38149 6.81194 5.18337 6.57113 5.00293C6.56974 5.00189 6.5687 5.0012 6.56731 5.00016C5.90838 4.50674 5.28103 4.03727 4.54924 3.81104C3.81398 7.95891 6.25537 11.892 7.36364 13.4191C7.42437 13.5027 7.72867 13.8174 7.9733 14.0704L7.97364 14.07Z" fill="#EA767E"></path>
<path d="M11.6096 12.2615L11.5514 12.2824C11.1211 9.07275 9.72829 6.87945 7.16406 5.01093C9.16236 7.1147 10.5611 9.77053 10.8484 12.6835C11.0965 12.5357 11.3508 12.3958 11.6096 12.2615Z" fill="#FFDEDE"></path>
<path d="M8.15161 14.7577C7.78103 14.3639 7.19705 13.7799 7.08289 13.6227C5.01139 10.7687 3.49887 6.92518 4.27994 3.38592C5.4014 3.60382 6.26678 4.35678 7.16409 5.01085C9.72831 6.87903 11.1211 9.07267 11.5514 12.2823L11.6097 12.2615C12.1999 11.9558 12.8161 11.6848 13.4574 11.453C12.456 8.01888 9.19777 4.09932 5.90487 2.73567C4.1977 2.02851 2.43467 1.58853 2.20808 3.99488C1.73133 9.06504 6.78206 14.9305 7.37228 15.587C7.62037 15.3 7.88027 15.0238 8.15161 14.7577Z" fill="#FFC0C0"></path>
<path d="M7.97361 14.07C8.12594 14.2275 8.27653 14.384 8.40526 14.5211C8.67764 14.266 8.95697 14.0176 9.25086 13.7841C8.95558 11.1577 7.43682 6.82698 4.53394 6.90679C4.97495 9.80863 6.53847 12.2816 7.36395 13.419C7.42468 13.5026 7.72898 13.817 7.97361 14.07Z" fill="#F6A7A8"></path>
<path d="M8.15155 14.7577C7.88229 14.4715 7.50234 14.087 7.26917 13.8361C7.50165 14.0863 7.88229 14.4715 8.15155 14.7577Z" fill="#F6A7A8"></path>
<path d="M4.19629 6.93353L4.19664 6.93492L4.19629 6.93353Z" fill="#F6A7A8"></path>
<path d="M6.1623 12.2161C6.12969 12.1609 6.09672 12.1064 6.06445 12.0509C6.09638 12.1064 6.12969 12.1609 6.1623 12.2161Z" fill="#F6A7A8"></path>
<path d="M7.08289 13.6227C7.09746 13.6432 7.12071 13.671 7.14985 13.7043C7.12071 13.671 7.09781 13.6429 7.08289 13.6227Z" fill="#F6A7A8"></path>
<path d="M7.16895 13.7255C7.19497 13.755 7.22377 13.7865 7.25743 13.8233C7.22342 13.7865 7.19532 13.7553 7.16895 13.7255Z" fill="#F6A7A8"></path>
<path d="M6.62454 12.9569C6.58359 12.8951 6.54403 12.8323 6.50378 12.7695C6.54403 12.832 6.58359 12.8948 6.62454 12.9569Z" fill="#F6A7A8"></path>
<path d="M29.4882 14.07C29.3372 14.2258 29.1891 14.3802 29.061 14.5163C28.4132 13.9118 27.7036 13.3674 26.9413 12.8861L26.9489 12.8001C27.1835 10.224 28.3122 7.74586 30.2213 5.60599C30.4216 5.38149 30.6499 5.18337 30.8907 5.00293C30.8921 5.00189 30.8931 5.0012 30.8945 5.00016C31.5534 4.50674 32.1808 4.03727 32.9126 3.81104C33.6478 7.95891 31.2064 11.892 30.0982 13.4191C30.0374 13.5027 29.7331 13.8174 29.4885 14.0704L29.4882 14.07Z" fill="#EA767E"></path>
<path d="M25.8521 12.2615L25.9103 12.2824C26.3406 9.07275 27.7334 6.87945 30.2976 5.01093C28.2993 7.1147 26.9006 9.77053 26.6133 12.6835C26.3652 12.5357 26.1109 12.3958 25.8521 12.2615Z" fill="#FFDEDE"></path>
<path d="M29.3102 14.7577C29.6807 14.3639 30.2647 13.7799 30.3789 13.6227C32.4504 10.7687 33.9629 6.92518 33.1818 3.38592C32.0604 3.60382 31.195 4.35678 30.2977 5.01085C27.7335 6.87903 26.3407 9.07267 25.9104 12.2823L25.8521 12.2615C25.2619 11.9558 24.6456 11.6848 24.0044 11.453C25.0058 8.01888 28.264 4.09932 31.5569 2.73567C33.2641 2.02851 35.0271 1.58853 35.2537 3.99488C35.7304 9.06504 30.6797 14.9305 30.0895 15.587C29.8414 15.3 29.5815 15.0238 29.3102 14.7577Z" fill="#FFC0C0"></path>
<path d="M29.4882 14.07C29.3359 14.2275 29.1853 14.384 29.0565 14.5211C28.7842 14.266 28.5048 14.0176 28.2109 13.7841C28.5062 11.1577 30.025 6.82698 32.9279 6.90679C32.4868 9.80863 30.9233 12.2816 30.0978 13.419C30.0371 13.5026 29.7328 13.817 29.4882 14.07Z" fill="#F6A7A8"></path>
<path d="M29.3102 14.7577C29.5794 14.4715 29.9594 14.087 30.1926 13.8361C29.9601 14.0863 29.5794 14.4715 29.3102 14.7577Z" fill="#F6A7A8"></path>
<path d="M33.2655 6.93353L33.2651 6.93492L33.2655 6.93353Z" fill="#F6A7A8"></path>
<path d="M31.2994 12.2161C31.3321 12.1609 31.365 12.1064 31.3973 12.0509C31.3654 12.1064 31.3321 12.1609 31.2994 12.2161Z" fill="#F6A7A8"></path>
<path d="M30.3789 13.6227C30.3643 13.6432 30.341 13.671 30.3119 13.7043C30.341 13.671 30.3639 13.6429 30.3789 13.6227Z" fill="#F6A7A8"></path>
<path d="M30.2928 13.7255C30.2668 13.755 30.238 13.7865 30.2043 13.8233C30.2384 13.7865 30.2665 13.7553 30.2928 13.7255Z" fill="#F6A7A8"></path>
<path d="M30.8373 12.9569C30.8782 12.8951 30.9178 12.8323 30.958 12.7695C30.9178 12.832 30.8782 12.8948 30.8373 12.9569Z" fill="#F6A7A8"></path>
<path d="M111.259 35.5957V39.5475H110.353V39.2342H107.916V39.5534H107.034V35.5961H111.259L111.259 35.5957ZM110.347 38.4157V36.4136H107.911V38.4157H110.347Z" fill="#20185B"></path>
<path d="M116.326 35.7175V39.7505H115.403V39.4604H112.165V38.6249H115.403V36.553H112.212V35.7175H116.326ZM115.45 34.6207C115.688 34.8126 115.989 35.1547 116.146 35.3577L115.751 35.6828C115.618 35.4798 115.275 35.1026 115.078 34.9285L115.45 34.6207ZM116.436 34.5339C116.686 34.7196 116.976 35.027 117.132 35.2532L116.744 35.5784C116.605 35.3813 116.28 35.0097 116.071 34.8414L116.436 34.5339Z" fill="#20185B"></path>
<path d="M119.467 37.383C118.997 37.6908 118.243 38.1027 117.68 38.3695C117.564 38.1724 117.326 37.8532 117.146 37.6908C118.626 37.0468 120.367 35.857 121.237 34.8185L122.108 35.4566C122.072 35.5034 122.009 35.5322 121.91 35.5263C121.458 35.9614 120.93 36.4084 120.384 36.8088L120.593 36.8782C120.576 36.9361 120.518 36.9885 120.408 37.0059V39.9886H119.468V37.383H119.467Z" fill="#20185B"></path>
<path d="M122.404 35.4909H126.002L126.054 35.4559L126.82 35.9899C126.791 36.0249 126.751 36.0596 126.704 36.0829C126.159 38.2533 125.189 39.2568 123.414 39.965C123.286 39.7443 123.025 39.4136 122.845 39.228C124.366 38.6593 125.346 37.6842 125.613 36.3438H122.404V35.4909ZM126.861 34.5568C127.203 34.5568 127.482 34.8355 127.482 35.1776C127.482 35.5197 127.203 35.7987 126.861 35.7987C126.518 35.7987 126.24 35.5201 126.24 35.1776C126.24 34.8237 126.53 34.5568 126.861 34.5568ZM127.25 35.1776C127.25 34.9632 127.076 34.789 126.861 34.789C126.646 34.789 126.472 34.9632 126.472 35.1776C126.472 35.392 126.646 35.5666 126.861 35.5666C127.087 35.5666 127.25 35.3809 127.25 35.1776Z" fill="#20185B"></path>
<path d="M132.688 36.8608H131.684V37.0465C131.684 38.3057 131.243 39.3328 129.88 40C129.717 39.8144 129.45 39.5475 129.23 39.3851C130.495 38.8109 130.791 37.9982 130.791 37.0524V36.8608H129.474V38.1027H128.592V36.8608H127.651V36.0194H128.592V34.9052L129.659 34.9691C129.653 35.0329 129.595 35.1082 129.474 35.1318V36.0197H130.791V34.8299L131.87 34.8879C131.864 34.9576 131.806 35.01 131.684 35.0329V36.0197H132.688V36.8612V36.8608Z" fill="#20185B"></path>
<path d="M137.344 39.8956C137.251 39.652 137.164 39.4427 137.071 39.2571C135.777 39.4139 134.355 39.5413 133.508 39.5822C133.491 39.6464 133.439 39.7044 133.374 39.7099L133.084 38.6887C133.253 38.6887 133.456 38.6828 133.676 38.6773C134.018 37.6152 134.477 36.002 134.726 34.917L135.841 35.2012C135.823 35.265 135.748 35.3112 135.649 35.3174C135.388 36.2515 134.976 37.5572 134.605 38.6481C135.156 38.6252 136.136 38.5496 136.67 38.4917C136.455 38.1145 136.217 37.7606 135.991 37.4819L136.74 37.0756C137.303 37.7373 137.895 38.7644 138.219 39.4667L137.344 39.8959L137.344 39.8956Z" fill="#20185B"></path>
<path fill-rule="evenodd" clip-rule="evenodd" d="M140.945 17.1502C142.482 17.1502 143.727 15.9045 143.727 14.3678C143.727 12.8311 142.482 11.5854 140.945 11.5854C139.986 11.5854 139.14 12.0707 138.64 12.809C138.42 12.769 138.223 12.7576 138.067 12.7576H133.875C133.241 12.7576 132.59 12.9461 132.032 13.3849C131.884 13.5015 131.754 13.6262 131.641 13.7541C131.588 13.6892 131.53 13.6254 131.468 13.5629C130.84 12.9348 130.062 12.7576 129.46 12.7576H125.267C124.8 12.7576 124.232 12.8559 123.697 13.1808C123.123 12.8219 122.517 12.7576 122.148 12.7576H119.879C119.284 12.7576 118.567 12.9219 117.95 13.447C117.839 13.5411 117.74 13.6401 117.65 13.7424C117.64 13.7299 117.629 13.7174 117.619 13.705C116.916 12.8772 115.968 12.7576 115.464 12.7576H113.196C112.601 12.7576 111.884 12.9217 111.266 13.4473C111.053 13.6286 110.881 13.8281 110.743 14.0346C109.569 12.9968 107.91 12.4342 105.823 12.4342C103.208 12.4342 101.34 13.3784 100.086 14.6057C98.7519 13.1413 96.7505 12.7576 94.8054 12.7576H90.2928L90.2359 12.7605C89.7914 12.783 89.2439 12.8971 88.7277 13.2257C88.1334 12.827 87.4923 12.7576 87.1082 12.7576H84.8806C84.2848 12.7576 83.5682 12.9219 82.9509 13.447C82.7164 13.6465 82.5316 13.868 82.3868 14.0966C82.0678 13.7857 81.6952 13.5033 81.2637 13.2616C80.2017 12.6667 78.9177 12.3929 77.4471 12.3929C74.6112 12.3929 72.6067 13.4132 71.2882 14.8547C70.1741 13.237 68.2538 12.3929 65.7002 12.3929C62.8442 12.3929 60.8313 13.4278 59.5132 14.8855C59.2962 14.5664 59.0378 14.2631 58.7338 13.9849L58.4999 13.6341L58.4769 13.7648C58.2502 13.5829 58.0013 13.4141 57.729 13.2616C56.667 12.6667 55.383 12.3929 53.9124 12.3929C50.862 12.3929 48.7735 13.5734 47.466 15.1887C46.2485 16.6928 45.8727 18.3703 45.7355 19.1882L44.9855 23.4503H42.7791L44.0796 16.0279C44.1809 15.4893 44.2138 14.534 43.509 13.7046C42.8065 12.8777 41.8596 12.7577 41.355 12.7576L39.0867 12.7573C38.491 12.7573 37.7744 12.9216 37.1571 13.4467C36.5504 13.9627 36.2764 14.6262 36.1661 15.1786L36.1612 15.2033L33.8648 28.2097L33.8616 28.23C33.7728 28.7932 33.7929 29.6896 34.4392 30.4692C35.0975 31.2631 35.9954 31.4445 36.5957 31.4445H44.5951C45.1677 31.4445 45.9032 31.2974 46.5408 30.7546C46.6344 30.6749 46.72 30.5917 46.7982 30.5059C47.0022 30.6624 47.2234 30.8085 47.4625 30.9421C48.5249 31.5357 49.809 31.8096 51.2798 31.8096C54.136 31.8096 56.1448 30.7745 57.4602 29.3166C57.8872 29.9428 58.4738 30.5076 59.2496 30.9411C60.3121 31.5347 61.5961 31.8085 63.067 31.8085C65.9062 31.8085 67.9082 30.7856 69.224 29.3413C69.6496 29.9581 70.2312 30.5141 70.9972 30.9421C72.0596 31.5357 73.3437 31.8096 74.8145 31.8096C77.0497 31.8096 78.766 31.1756 80.0371 30.2012C80.0949 30.2917 80.16 30.3813 80.2331 30.4695C80.8914 31.2635 81.7893 31.4449 82.3896 31.4449H84.6172C85.1336 31.4449 85.7222 31.322 86.2586 30.9747C86.8101 31.346 87.4156 31.4449 87.8588 31.4449H90.127C90.6999 31.4449 91.4351 31.2974 92.0724 30.755C92.6979 30.2225 92.9654 29.5341 93.0595 28.9603L93.4172 26.9862C94.4977 26.9625 95.5291 26.8135 96.4765 26.487C96.5725 27.3319 96.8388 28.2845 97.445 29.1712C98.5875 30.8424 100.557 31.7485 103.21 31.7485C106.124 31.7485 108.186 30.6781 109.544 29.3615C109.968 29.9703 110.545 30.5188 111.303 30.9421C112.365 31.5357 113.649 31.8096 115.12 31.8096C117.385 31.8096 119.117 31.1587 120.393 30.1622C120.451 30.257 120.517 30.3512 120.592 30.4441C121.265 31.2814 122.2 31.4449 122.776 31.4449H125.045C125.596 31.4449 126.229 31.3048 126.793 30.9017C127.383 31.3392 128.035 31.4449 128.508 31.4449H129.844C130.415 31.4449 131.033 31.2969 131.59 30.9145L131.606 30.9029C132.184 31.3332 132.837 31.4449 133.308 31.4449H135.576C136.199 31.4449 136.927 31.2657 137.542 30.7295C138.141 30.2067 138.412 29.5367 138.508 28.9603L140.597 17.1286C140.711 17.1429 140.827 17.1502 140.945 17.1502Z" fill="#20185B"></path>
<path d="M41.355 15.0131C41.7599 15.0131 41.9421 15.2157 41.8612 15.6206L40.2006 25.0982C40.1197 25.483 40.3019 25.7058 40.6867 25.7058H45.2027C45.608 25.7058 45.7902 25.9084 45.709 26.3134L45.304 28.5816C45.2433 28.9865 45.0004 29.1892 44.5951 29.1892H36.5957C36.2109 29.1892 36.0287 28.9664 36.0895 28.5816L38.3778 15.6203C38.4587 15.2154 38.7023 15.0127 39.0867 15.0127L41.355 15.0131Z" fill="url(#paint0_linear_5416_69)"></path>
<path d="M57.2338 24.6329C56.9909 25.9695 56.0797 29.5542 51.2798 29.5542C46.48 29.5542 46.8245 25.9695 47.0674 24.6329L47.9585 19.5697C48.1812 18.2331 49.1126 14.6484 53.9124 14.6484C58.7123 14.6484 58.3472 18.2331 58.1248 19.5697L57.2338 24.6329ZM54.4391 20.6433C54.7223 19.0839 54.7833 18.1321 53.2847 18.1321C51.7861 18.1321 51.5227 19.0839 51.2392 20.6433L50.733 23.5593C50.4495 25.1187 50.3888 26.0705 51.8871 26.0705C53.3853 26.0705 53.649 25.1187 53.9329 23.5593L54.4391 20.6433Z" fill="url(#paint1_linear_5416_69)"></path>
<path d="M59.7463 19.5697C59.9691 18.2331 60.9004 14.6484 65.7002 14.6484C69.9532 14.6484 70.1555 17.4434 69.9935 19.0228C69.9328 19.3872 69.71 19.6099 69.3457 19.6911L66.9556 20.1974C66.5507 20.2782 66.348 20.0961 66.3886 19.6707C66.4695 18.6984 66.2266 18.1314 65.0722 18.1314C63.5735 18.1314 63.3102 19.0832 63.0267 20.6426L62.5204 23.5586C62.237 25.118 62.1762 26.0698 63.6745 26.0698C65.1728 26.0698 65.4365 25.118 65.619 24.1256H64.4441C64.0597 24.1256 63.8772 23.9025 63.9379 23.518L64.2214 21.8976C64.3022 21.4927 64.5656 21.29 64.9504 21.29H69.0011C69.406 21.29 69.5681 21.4927 69.4869 21.8976L69.0209 24.6319C68.778 25.9685 67.8668 29.5532 63.0669 29.5532C58.2671 29.5532 58.6116 25.9685 58.8545 24.6319L59.7456 19.5686L59.7463 19.5697Z" fill="url(#paint2_linear_5416_69)"></path>
<path d="M80.7684 24.6329C80.5256 25.9695 79.6144 29.5542 74.8145 29.5542C70.0147 29.5542 70.3592 25.9695 70.6021 24.6329L71.4932 19.5697C71.7159 18.2331 72.6472 14.6484 77.4471 14.6484C82.247 14.6484 81.8819 18.2331 81.6595 19.5697L80.7684 24.6329ZM77.9738 20.6433C78.257 19.0839 78.318 18.1321 76.8194 18.1321C75.3208 18.1321 75.0574 19.0839 74.7739 20.6433L74.2677 23.5593C73.9842 25.1187 73.9235 26.0705 75.4217 26.0705C76.92 26.0705 77.1837 25.1187 77.4676 23.5593L77.9738 20.6433Z" fill="url(#paint3_linear_5416_69)"></path>
<path d="M87.1082 15.0131C87.5135 15.0131 87.6957 15.2157 87.6148 15.6206L85.3261 28.582C85.2654 28.9668 85.0225 29.1895 84.6172 29.1895H82.3896C82.0048 29.1895 81.8226 28.9668 81.8833 28.582L84.1717 15.6206C84.2525 15.2157 84.4961 15.0131 84.8806 15.0131H87.1082Z" fill="url(#paint4_linear_5416_69)"></path>
<path d="M94.8051 15.0131C98.4099 15.0131 99.6046 16.5523 99.0175 19.8736C98.4304 23.1947 96.709 24.7342 93.1038 24.7342H92.1319C91.7471 24.7342 91.4837 24.9365 91.423 25.3418L90.8359 28.582C90.7748 28.9869 90.5319 29.1895 90.127 29.1895H87.8588C87.474 29.1895 87.2918 28.9668 87.3525 28.582L89.6409 15.6411C89.702 15.2358 89.9448 15.0335 90.3498 15.0131H94.8051ZM93.8328 21.2508C94.8051 21.2508 95.3113 21.129 95.5337 19.8736C95.7569 18.6179 95.2909 18.4965 94.3186 18.4965H93.2253C92.8404 18.4965 92.5771 18.6988 92.5164 19.104L92.2329 20.6433C92.1721 21.0277 92.3547 21.2508 92.7391 21.2508H93.8328Z" fill="url(#paint5_linear_5416_69)"></path>
<path d="M107.322 20.0357C106.896 20.1165 106.734 19.9344 106.734 19.5294C106.734 18.6988 106.167 18.1727 105.216 18.1727C104.426 18.1727 103.859 18.6384 103.859 19.1044C103.859 20.6839 110.258 20.6436 109.448 25.3012C109.347 25.9088 108.01 29.4931 103.21 29.4931C98.9575 29.4931 98.5525 26.6985 98.7146 25.119C98.7753 24.7544 98.9981 24.5319 99.3627 24.4507L101.752 23.9445C102.157 23.8636 102.36 24.0458 102.319 24.4712C102.239 25.4431 102.887 26.0104 103.839 26.0104C104.831 26.0104 105.661 25.4233 105.641 24.8761C105.56 23.1548 99.3829 23.5392 100.213 18.8816C100.294 18.274 101.286 14.6897 105.823 14.6897C109.995 14.6897 110.501 17.4031 110.359 18.8615C110.319 19.2258 110.096 19.4486 109.711 19.5298L107.322 20.0357Z" fill="url(#paint6_linear_5416_69)"></path>
<path d="M115.464 15.0131C115.87 15.0131 116.051 15.2157 115.971 15.6206L114.574 23.5593C114.29 25.1187 114.229 26.0705 115.728 26.0705C117.226 26.0705 117.49 25.1187 117.773 23.5593L119.17 15.6206C119.251 15.2157 119.495 15.0131 119.879 15.0131H122.148C122.553 15.0131 122.735 15.2157 122.654 15.6206L121.074 24.6329C120.831 25.9695 119.92 29.5542 115.12 29.5542C110.32 29.5542 110.665 25.9695 110.908 24.6329L112.487 15.6206C112.568 15.2157 112.812 15.0131 113.196 15.0131H115.464Z" fill="url(#paint7_linear_5416_69)"></path>
<path d="M129.46 15.0131C129.824 15.0131 130.006 15.2157 130.027 15.5599L130.412 21.4531C130.432 21.6554 130.594 21.6554 130.655 21.4531L133.146 15.5599C133.287 15.2157 133.51 15.0131 133.875 15.0131H138.067C138.472 15.0131 138.654 15.2157 138.573 15.6206L136.285 28.582C136.224 28.9668 135.981 29.1895 135.576 29.1895H133.308C132.923 29.1895 132.741 28.9668 132.801 28.582L134.219 20.6027C134.239 20.4611 134.057 20.4406 133.996 20.5825L130.614 28.6628C130.472 29.007 130.209 29.1895 129.844 29.1895H128.508C128.143 29.1895 127.961 29.0074 127.941 28.6628L127.394 20.5825C127.374 20.4406 127.191 20.4607 127.171 20.6027L125.753 28.582C125.692 28.9668 125.45 29.1895 125.045 29.1895H122.776C122.371 29.1895 122.209 28.9668 122.27 28.582L124.558 15.6206C124.639 15.2157 124.862 15.0131 125.267 15.0131H129.46Z" fill="url(#paint8_linear_5416_69)"></path>
<path d="M141.992 14.3678C141.992 14.9463 141.523 15.4153 140.945 15.4153C140.367 15.4153 139.898 14.9463 139.898 14.3678C139.898 13.7893 140.367 13.3204 140.945 13.3204C141.523 13.3204 141.992 13.7893 141.992 14.3678Z" fill="url(#paint9_linear_5416_69)"></path>
<defs>
<linearGradient id="paint0_linear_5416_69" x1="89.0352" y1="13.3204" x2="90.7745" y2="30.2853" gradientUnits="userSpaceOnUse">
<stop stop-color="#FFD4D4"></stop>
<stop offset="0.501102" stop-color="#FFD4D4"></stop>
<stop offset="0.501102" stop-color="#F6A7A8"></stop>
</linearGradient>
<linearGradient id="paint1_linear_5416_69" x1="89.0352" y1="13.3204" x2="90.7745" y2="30.2853" gradientUnits="userSpaceOnUse">
<stop stop-color="#FFD4D4"></stop>
<stop offset="0.501102" stop-color="#FFD4D4"></stop>
<stop offset="0.501102" stop-color="#F6A7A8"></stop>
</linearGradient>
<linearGradient id="paint2_linear_5416_69" x1="89.0352" y1="13.3204" x2="90.7745" y2="30.2853" gradientUnits="userSpaceOnUse">
<stop stop-color="#FFD4D4"></stop>
<stop offset="0.501102" stop-color="#FFD4D4"></stop>
<stop offset="0.501102" stop-color="#F6A7A8"></stop>
</linearGradient>
<linearGradient id="paint3_linear_5416_69" x1="89.0352" y1="13.3204" x2="90.7745" y2="30.2853" gradientUnits="userSpaceOnUse">
<stop stop-color="#FFD4D4"></stop>
<stop offset="0.501102" stop-color="#FFD4D4"></stop>
<stop offset="0.501102" stop-color="#F6A7A8"></stop>
</linearGradient>
<linearGradient id="paint4_linear_5416_69" x1="89.0352" y1="13.3204" x2="90.7745" y2="30.2853" gradientUnits="userSpaceOnUse">
<stop stop-color="#FFD4D4"></stop>
<stop offset="0.501102" stop-color="#FFD4D4"></stop>
<stop offset="0.501102" stop-color="#F6A7A8"></stop>
</linearGradient>
<linearGradient id="paint5_linear_5416_69" x1="89.0352" y1="13.3204" x2="90.7745" y2="30.2853" gradientUnits="userSpaceOnUse">
<stop stop-color="#FFD4D4"></stop>
<stop offset="0.501102" stop-color="#FFD4D4"></stop>
<stop offset="0.501102" stop-color="#F6A7A8"></stop>
</linearGradient>
<linearGradient id="paint6_linear_5416_69" x1="89.0352" y1="13.3204" x2="90.7745" y2="30.2853" gradientUnits="userSpaceOnUse">
<stop stop-color="#FFD4D4"></stop>
<stop offset="0.501102" stop-color="#FFD4D4"></stop>
<stop offset="0.501102" stop-color="#F6A7A8"></stop>
</linearGradient>
<linearGradient id="paint7_linear_5416_69" x1="89.0352" y1="13.3204" x2="90.7745" y2="30.2853" gradientUnits="userSpaceOnUse">
<stop stop-color="#FFD4D4"></stop>
<stop offset="0.501102" stop-color="#FFD4D4"></stop>
<stop offset="0.501102" stop-color="#F6A7A8"></stop>
</linearGradient>
<linearGradient id="paint8_linear_5416_69" x1="89.0352" y1="13.3204" x2="90.7745" y2="30.2853" gradientUnits="userSpaceOnUse">
<stop stop-color="#FFD4D4"></stop>
<stop offset="0.501102" stop-color="#FFD4D4"></stop>
<stop offset="0.501102" stop-color="#F6A7A8"></stop>
</linearGradient>
<linearGradient id="paint9_linear_5416_69" x1="89.0352" y1="13.3204" x2="90.7745" y2="30.2853" gradientUnits="userSpaceOnUse">
<stop stop-color="#FFD4D4"></stop>
<stop offset="0.501102" stop-color="#FFD4D4"></stop>
<stop offset="0.501102" stop-color="#F6A7A8"></stop>
</linearGradient>
</defs>
</svg>